<svg width="47" height="47" viewBox="0 0 47 47" fill="none" xmlns="http://www.w3.org/2000/svg">
<path fill-rule="evenodd" clip-rule="evenodd" d="M21.7114 46.874L21.2238 46.8125L21.2107 46.8095L21.1634 46.8037C20.5892 46.7314 20.0166 46.6591 19.4482 46.5605C14.2299 45.6855 9.47665 43.0283 5.99826 39.041C2.65634 35.3769 0.593105 30.7275 0.118251 25.791C-0.455601 20.0986 1.07235 14.3925 4.41427 9.74899C7.75619 5.10446 12.6812 1.84372 18.2613 0.579067C23.8414 -0.684605 29.691 0.135707 34.7081 2.88571C39.7251 5.63668 43.5628 10.1269 45.4983 15.5107C46.2175 17.4902 46.6584 19.5605 46.8083 21.6611C46.8243 21.8095 46.851 21.956 46.8883 22.1006V24.8506C46.8883 24.9423 46.8654 25.0341 46.8421 25.1269C46.8246 25.1972 46.8069 25.2685 46.7983 25.3408C46.7621 25.6172 46.7313 25.8945 46.7005 26.1718L46.6987 26.1894C46.6368 26.75 46.5746 27.3134 46.4682 27.8711C45.6263 32.4511 43.4076 36.665 40.1082 39.9511C36.7109 43.4394 32.2905 45.7548 27.4882 46.5605C27.2884 46.5947 27.0886 46.625 26.8888 46.6533L26.2922 46.7334L25.7082 46.8076L25.5284 46.83C25.2917 46.8593 25.0549 46.8886 24.8182 46.9209H22.0782L21.7114 46.874ZM23.4582 45.4511C27.8094 45.4511 32.0628 44.1611 35.6808 41.7431C39.2987 39.3261 42.1185 35.8896 43.7835 31.8701C45.4487 27.8506 45.8844 23.4267 45.0355 19.1591C44.1866 14.8916 42.0914 10.9716 39.0146 7.8945C35.9377 4.81832 32.0178 2.72262 27.7502 1.87399C23.4826 1.02438 19.0592 1.4609 15.0391 3.12594C11.0191 4.79098 7.58322 7.61032 5.16586 11.2285C2.7485 14.8466 1.45822 19.0996 1.45822 23.4511C1.45822 29.2861 3.77609 34.8818 7.90182 39.0068C9.94479 41.0498 12.3701 42.6709 15.0391 43.7763C17.7083 44.8818 20.5692 45.4511 23.4582 45.4511Z" fill="#3478B1"/>
<path d="M10.9956 31.8684L10.9946 31.4629C11.1715 31.1696 11.4348 31.0596 11.7709 31.0978C11.8634 31.1082 11.9579 31.0987 12.0504 31.1077C13.2065 31.2168 14.3326 31.0483 15.443 30.7441C16.0741 30.5709 16.6776 30.3242 17.2564 30.0192C17.3209 29.9853 17.4307 29.9678 17.4238 29.8856C17.4155 29.7829 17.2938 29.8025 17.2199 29.7722C17.1886 29.759 17.1553 29.7524 17.1227 29.7426C15.3806 29.191 14.1215 28.0855 13.323 26.4521C13.2086 26.2179 13.2133 25.9919 13.3798 25.7874C13.5404 25.5902 13.7585 25.5459 14.0009 25.599C14.162 25.6343 14.3231 25.6704 14.4849 25.7064C14.2375 25.4864 13.9748 25.3055 13.7334 25.0954C12.4491 23.9754 11.7588 22.5697 11.6727 20.8702C11.6601 20.6158 11.7321 20.3989 11.9653 20.2678C12.2006 20.1354 12.4216 20.2017 12.6356 20.3344C12.7462 20.4024 12.839 20.5095 12.9854 20.5257C13.0084 20.4044 12.923 20.3443 12.8783 20.2688C11.7617 18.3791 11.6604 16.4624 12.7215 14.5155C12.9851 14.0318 13.4128 13.987 13.7918 14.3909C13.8438 14.4465 13.8952 14.5027 13.9439 14.5608C15.2814 16.1697 16.9154 17.3875 18.8292 18.2355C20.1096 18.8029 21.4486 19.1514 22.8416 19.3003C23.052 19.323 23.1223 19.2472 23.1098 19.0511C23.1029 18.9418 23.106 18.8318 23.107 18.7218C23.1147 17.2878 23.628 16.0408 24.5902 14.996C26.6712 12.7365 30.1268 12.5278 32.4886 14.4972C32.6507 14.6326 32.7898 14.6661 32.9926 14.6072C33.8351 14.3646 34.64 14.0332 35.4116 13.6218C35.6601 13.4893 35.8976 13.4775 36.1216 13.6624C36.3203 13.8263 36.3716 14.0832 36.2658 14.3797C36.2037 14.5541 36.1283 14.7246 36.0589 14.8971C35.9332 15.2088 35.7309 15.4804 35.5461 15.8022C35.8302 15.7876 36.0295 15.6459 36.2529 15.5838C36.4883 15.5176 36.6953 15.5701 36.8548 15.7486C37.0223 15.9357 37.0501 16.1563 36.9376 16.3845C36.8965 16.4674 36.8428 16.5444 36.7891 16.6194C36.2063 17.4366 35.5294 18.1666 34.7318 18.7782C34.5239 18.9377 34.4405 19.1162 34.4804 19.3639C34.5642 19.8786 34.5029 20.3943 34.4603 20.9046C34.3046 22.7538 33.7586 24.4972 32.8977 26.1367C31.5421 28.7205 29.6436 30.8165 27.1456 32.3541C24.5512 33.9516 21.725 34.6777 18.6829 34.4686C16.126 34.2928 13.7267 33.5533 11.4957 32.2873C11.3011 32.1771 11.1245 32.0523 10.9956 31.8678L10.9956 31.8684Z" fill="white"/>
</svg>
