<svg width="47" height="47" viewBox="0 0 47 47" fill="none" xmlns="http://www.w3.org/2000/svg">
<path fill-rule="evenodd" clip-rule="evenodd" d="M21.7114 46.874L21.2238 46.8125L21.2107 46.8095L21.1634 46.8037C20.5892 46.7314 20.0166 46.6591 19.4482 46.5605C14.2299 45.6855 9.47665 43.0283 5.99826 39.041C2.65634 35.3769 0.593105 30.7275 0.118251 25.791C-0.455601 20.0986 1.07235 14.3925 4.41427 9.74899C7.75619 5.10446 12.6812 1.84372 18.2613 0.579067C23.8414 -0.684605 29.691 0.135707 34.7081 2.88571C39.7251 5.63668 43.5628 10.1269 45.4983 15.5107C46.2175 17.4902 46.6584 19.5605 46.8083 21.6611C46.8243 21.8095 46.851 21.956 46.8883 22.1006V24.8506C46.8883 24.9423 46.8654 25.0341 46.8421 25.1269C46.8246 25.1972 46.8069 25.2685 46.7983 25.3408C46.7621 25.6172 46.7313 25.8945 46.7005 26.1718L46.6987 26.1894C46.6368 26.75 46.5746 27.3134 46.4682 27.8711C45.6263 32.4511 43.4076 36.665 40.1082 39.9511C36.7109 43.4394 32.2905 45.7548 27.4882 46.5605C27.2884 46.5947 27.0886 46.625 26.8888 46.6533L26.2922 46.7334L25.7082 46.8076L25.5284 46.83C25.2917 46.8593 25.0549 46.8886 24.8182 46.9209H22.0782L21.7114 46.874ZM23.4582 45.4511C27.8094 45.4511 32.0628 44.1611 35.6808 41.7431C39.2987 39.3261 42.1185 35.8896 43.7835 31.8701C45.4487 27.8506 45.8844 23.4267 45.0355 19.1591C44.1866 14.8916 42.0914 10.9716 39.0146 7.8945C35.9377 4.81832 32.0178 2.72262 27.7502 1.87399C23.4826 1.02438 19.0592 1.4609 15.0391 3.12594C11.0191 4.79098 7.58322 7.61032 5.16586 11.2285C2.7485 14.8466 1.45822 19.0996 1.45822 23.4511C1.45822 29.2861 3.77609 34.8818 7.90182 39.0068C9.94479 41.0498 12.3701 42.6709 15.0391 43.7763C17.7083 44.8818 20.5692 45.4511 23.4582 45.4511Z" fill="#3478B1"/>
<path d="M25.101 31.1587V35.9682C25.101 36.1138 25.101 36.2671 25.0751 36.4136C25.0057 36.8257 24.824 36.9956 24.3826 36.9956C23.522 37.0005 22.6643 36.9995 21.8063 36.9985L19.847 36.9956C19.4143 36.9956 19.2325 36.8257 19.1805 36.4292C19.1687 36.3403 19.1605 36.2505 19.155 36.1587C19.1486 36.0513 19.146 35.9409 19.146 35.8305V26.2124C19.146 25.894 18.97 25.7348 18.6179 25.7348H15.8396C15.2078 25.7348 15 25.5405 15 24.9585V21.1616C15 20.5708 15.2078 20.3843 15.8309 20.3843L16.8103 20.3823C17.4653 20.3804 18.1215 20.3784 18.7738 20.3843C19.0594 20.3843 19.146 20.2954 19.146 20.0366L19.1447 19.4282C19.1418 18.6196 19.139 17.81 19.1805 17.0005C19.3278 14.0698 21.0848 11.5356 24.876 11.0991C25.9895 10.9682 27.113 10.9956 28.239 11.022C28.5835 11.0298 28.9282 11.0376 29.273 11.0415C29.8182 11.0415 29.9913 11.2524 30 11.7544V15.397C30 15.9155 29.8009 16.102 29.2469 16.1098C28.8574 16.1138 28.468 16.1138 28.0785 16.1138C27.689 16.1138 27.2994 16.1138 26.9099 16.1177H26.5377C25.4645 16.1821 25.1183 16.5141 25.1096 17.519V19.9868C25.1096 20.1079 25.1317 20.1899 25.1838 20.2417C25.2397 20.2964 25.3301 20.3159 25.4645 20.311C26.2556 20.3061 27.0468 20.3071 27.8355 20.3091L29.0133 20.311C29.6711 20.311 29.8616 20.4897 29.8616 21.0962V24.9585C29.8616 25.4927 29.7317 25.6382 29.1604 25.6704C28.3982 25.7173 27.6359 25.7114 26.8737 25.7046C26.4415 25.7007 26.0093 25.6968 25.577 25.7036C25.1183 25.7036 25.1096 25.7036 25.1096 26.1479V31.1509L25.101 31.1587Z" fill="white"/>
</svg>
