<svg width="47" height="47" viewBox="0 0 47 47" fill="none" xmlns="http://www.w3.org/2000/svg">
<path fill-rule="evenodd" clip-rule="evenodd" d="M21.7114 46.874L21.2238 46.8125L21.2107 46.8095L21.1634 46.8037C20.5892 46.7314 20.0166 46.6591 19.4482 46.5605C14.2299 45.6855 9.47665 43.0283 5.99826 39.041C2.65634 35.3769 0.593105 30.7275 0.118251 25.791C-0.455601 20.0986 1.07235 14.3925 4.41427 9.74899C7.75619 5.10446 12.6812 1.84372 18.2613 0.579067C23.8414 -0.684605 29.691 0.135707 34.7081 2.88571C39.7251 5.63668 43.5628 10.1269 45.4983 15.5107C46.2175 17.4902 46.6584 19.5605 46.8083 21.6611C46.8243 21.8095 46.851 21.956 46.8883 22.1006V24.8506C46.8883 24.9423 46.8654 25.0341 46.8421 25.1269C46.8246 25.1972 46.8069 25.2685 46.7983 25.3408C46.7621 25.6172 46.7313 25.8945 46.7005 26.1718L46.6987 26.1894C46.6368 26.75 46.5746 27.3134 46.4682 27.8711C45.6263 32.4511 43.4076 36.665 40.1082 39.9511C36.7109 43.4394 32.2905 45.7548 27.4882 46.5605C27.2884 46.5947 27.0886 46.625 26.8888 46.6533L26.2922 46.7334L25.7082 46.8076L25.5284 46.83C25.2917 46.8593 25.0549 46.8886 24.8182 46.9209H22.0782L21.7114 46.874ZM23.4582 45.4511C27.8094 45.4511 32.0628 44.1611 35.6808 41.7431C39.2987 39.3261 42.1185 35.8896 43.7835 31.8701C45.4487 27.8506 45.8844 23.4267 45.0355 19.1591C44.1866 14.8916 42.0914 10.9716 39.0146 7.8945C35.9377 4.81832 32.0178 2.72262 27.7502 1.87399C23.4826 1.02438 19.0592 1.4609 15.0391 3.12594C11.0191 4.79098 7.58322 7.61032 5.16586 11.2285C2.7485 14.8466 1.45822 19.0996 1.45822 23.4511C1.45822 29.2861 3.77609 34.8818 7.90182 39.0068C9.94479 41.0498 12.3701 42.6709 15.0391 43.7763C17.7083 44.8818 20.5692 45.4511 23.4582 45.4511Z" fill="#3478B1"/>
<path d="M37 16.182V30.4172C36.9726 30.5477 36.9425 30.6781 36.9184 30.8092C36.4742 33.2522 35.137 35.043 32.9589 36.2143C32.1649 36.6411 31.3006 36.8538 30.4176 36.9997H16.1824C16.052 36.9722 15.9222 36.9421 15.7911 36.9181C13.3481 36.4739 11.5566 35.1366 10.386 32.9586C9.9592 32.1645 9.74581 31.3002 9.59998 30.4172C9.59998 25.6724 9.59998 20.9269 9.59998 16.182C9.6274 16.0516 9.6575 15.9212 9.68159 15.79C10.1258 13.347 11.463 11.5563 13.6411 10.385C14.4351 9.95816 15.2994 9.74544 16.1824 9.59961C20.9272 9.59961 25.6728 9.59961 30.4176 9.59961C30.548 9.62704 30.6778 9.65714 30.8089 9.68122C33.2519 10.1254 35.0434 11.4626 36.214 13.6407C36.6408 14.4348 36.8542 15.299 37 16.182ZM23.2619 30.7651C27.1692 30.751 30.7006 27.7434 30.7527 23.3378C30.7989 19.4311 27.7431 15.8991 23.3381 15.8469C19.4315 15.8001 15.8994 18.8565 15.8473 23.2615C15.8011 27.1682 18.8575 30.658 23.2619 30.7651ZM30.9661 13.1952C29.8858 13.1658 28.7994 14.0387 28.7941 15.3713C28.7894 16.5633 29.7714 17.5447 30.9614 17.5373C32.306 17.5286 33.1536 16.4329 33.1409 15.3639C33.1262 14.1464 32.185 13.1939 30.9668 13.1952H30.9661Z" fill="white"/>
<path d="M28 23.3092C27.9974 25.9062 25.897 28.0001 23.2958 27.9991C20.6887 27.998 18.5953 25.8934 18.6006 23.2788C18.6054 20.6856 20.7116 18.5959 23.3155 18.5996C25.9109 18.6033 28.0027 20.7064 28 23.3092Z" fill="white"/>
</svg>
